<svg width="202" height="303" viewBox="0 0 202 303" fill="none" xmlns="http://www.w3.org/2000/svg">
<path d="M72.4579 179.086L1 153.89V301L83.9569 243.294L45.7639 202.249L72.4579 179.086Z" fill="#FFD43B" stroke="#F8F9FA" stroke-width="2"/>
<path d="M201 299.781V77.8964L127 77.5L119.5 137.5L45.3531 202.249L83.9568 243.294L101.205 231.102L201 299.781Z" fill="#845EF7" stroke="#F8F9FA" stroke-width="2"/>
<path d="M1 77.4901V153.89L72.4579 179.085L119.686 137.635L127.078 77.4901H1Z" fill="#4DABF7" stroke="#F8F9FA" stroke-width="2"/>
<path d="M201 49.7633L201 1L82.5 1L100.1 12.5624L75 49.7633H201Z" fill="#99E9F2" stroke="#F8F9FA" stroke-width="2"/>
<path d="M0.999939 1L0.999939 49.7633H75.1803L100.5 12.5L82.5573 1L0.999939 1Z" fill="#4DABF7" stroke="#F8F9FA" stroke-width="2"/>
</svg>
